<svg id="Camada_1" data-name="Camada 1" xmlns="http://www.w3.org/2000/svg" xmlns:xlink="http://www.w3.org/1999/xlink" viewBox="0 0 24 24"><defs><style>.cls-1,.cls-3{fill:none;}.cls-2{clip-path:url(#clip-path);}.cls-3{stroke:#000;stroke-linecap:round;stroke-linejoin:round;}</style><clipPath id="clip-path"><rect class="cls-1" width="24" height="24"/></clipPath></defs><g id="Grupo_36073" data-name="Grupo 36073"><g class="cls-2"><g id="Grupo_36008" data-name="Grupo 36008"><g id="Grupo_de_máscara_37" data-name="Grupo de máscara 37"><g id="Grupo_10887" data-name="Grupo 10887"><g id="Grupo_10675" data-name="Grupo 10675"><path id="Caminho_9639" data-name="Caminho 9639" class="cls-3" d="M10.52,17.57A11.48,11.48,0,0,1,7.18,3.94h0a.78.78,0,0,1,1-.44h0L11.6,4.84a.79.79,0,0,1,.49.76L11.81,8s-.08.8-.4,1.05L10,9.42c-.39.1-.45.29-.39.68a10.56,10.56,0,0,0,2.5,5.22.67.67,0,0,0,.74.14l1.67-.91a.8.8,0,0,1,.77.14l2.08,1.68c.3.26.46.3.47.61l-1.25,2.85a1.18,1.18,0,0,1-1.51.56c-.54-.25-2.13-1.05-2.6-1.31"/></g><path id="Caminho_9640" data-name="Caminho 9640" class="cls-3" d="M13.28,9.72a2.31,2.31,0,0,1,1.24,2.89"/><path id="Caminho_9641" data-name="Caminho 9641" class="cls-3" d="M14,8c3.07,1.73,2.28,5.31,2.28,5.31"/></g></g></g></g></g></svg>