<svg id="Grupo_36024" data-name="Grupo 36024" xmlns="http://www.w3.org/2000/svg" width="24" height="24" viewBox="0 0 24 24">
  <g id="Grupo_35990" data-name="Grupo 35990">
    <g id="Grupo_35989" data-name="Grupo 35989">
      <g id="Grupo_35988" data-name="Grupo 35988">
        <rect id="Retângulo_13631" data-name="Retângulo 13631" width="24" height="24" fill="none"/>
      </g>
    </g>
  </g>
  <g id="Grupo_35991" data-name="Grupo 35991">
    <g id="Grupo_37" data-name="Grupo 37">
      <g id="Grupo_26507" data-name="Grupo 26507">
        <g id="Grupo_23746" data-name="Grupo 23746">
          <path id="Stroke_7666" data-name="Stroke 7666" d="M19.778,4.058l-2.6,3.017-1.3-1.326" fill="none" stroke="#000" stroke-linecap="round" stroke-linejoin="round" stroke-width="1"/>
          <path id="Stroke_4424" data-name="Stroke 4424" d="M20.143,8.168A8.96,8.96,0,0,1,21,12.008h0a9,9,0,1,1-5.954-8.477" fill="none" stroke="#000" stroke-linecap="round" stroke-linejoin="round" stroke-width="1"/>
        </g>
        <path id="acesso-a-conta" d="M15.771,15.179A3.7,3.7,0,0,0,12.1,12.563,3.7,3.7,0,0,0,8.429,15.18a.358.358,0,0,0,.676.236.323.323,0,0,0,.016-.063A2.987,2.987,0,0,1,12.1,13.276a2.99,2.99,0,0,1,2.977,2.077.358.358,0,1,0,.708-.11.364.364,0,0,0-.016-.063Zm-1.9-5.257A1.774,1.774,0,1,1,12.1,8.147a1.773,1.773,0,0,1,1.776,1.775Zm-.716,0a1.058,1.058,0,1,0-1.06,1.057,1.058,1.058,0,0,0,1.06-1.057h0Z"/>
      </g>
    </g>
  </g>
</svg>
