<svg id="PIX" xmlns="http://www.w3.org/2000/svg" xmlns:xlink="http://www.w3.org/1999/xlink" width="24" height="24" viewBox="0 0 24 24">
  <defs>
    <clipPath id="clip-path">
      <rect id="Ret칙ngulo_4363" data-name="Ret칙ngulo 4363" width="24" height="24" fill="#fff" stroke="#707070" stroke-width="1"/>
    </clipPath>
  </defs>
  <g id="Grupo_de_m치scara_37" data-name="Grupo de m치scara 37" clip-path="url(#clip-path)">
    <g id="Grupo_10665" data-name="Grupo 10665" transform="translate(3.031 3.033)">
      <path id="Caminho_9617" data-name="Caminho 9617" d="M631.351,613.778a2.619,2.619,0,0,1-1.863-.771l-2.7-2.7a.512.512,0,0,0-.707,0l-2.69,2.69a2.619,2.619,0,0,1-1.863.771H621.2l3.416,3.417a2.724,2.724,0,0,0,3.853,0h0l3.409-3.407Z" transform="translate(-617.579 -600.047)"/>
      <path id="Caminho_9618" data-name="Caminho 9618" d="M628.473,580.312a2.724,2.724,0,0,0-3.852,0h0l-3.417,3.417h.324a2.62,2.62,0,0,1,1.863.771l2.69,2.69a.5.5,0,0,0,.707,0l2.7-2.7a2.622,2.622,0,0,1,1.863-.771h.531Z" transform="translate(-617.579 -579.514)"/>
      <path id="Caminho_9619" data-name="Caminho 9619" d="M627.361,596.692l-2.046-2.047h-1.32a1.857,1.857,0,0,0-1.3.54l-2.7,2.7a1.293,1.293,0,0,1-1.826,0l-2.69-2.69a1.857,1.857,0,0,0-1.3-.54h-1.115l-2.035,2.036a2.724,2.724,0,0,0,0,3.853h0l2.035,2.035h1.115a1.854,1.854,0,0,0,1.3-.54l2.69-2.69a1.323,1.323,0,0,1,1.826,0l2.7,2.7a1.853,1.853,0,0,0,1.3.54h1.32l2.045-2.046A2.724,2.724,0,0,0,627.361,596.692Z" transform="translate(-610.224 -589.651)"/>
    </g>
  </g>
</svg>
