<svg id="Camada_1" data-name="Camada 1" xmlns="http://www.w3.org/2000/svg" xmlns:xlink="http://www.w3.org/1999/xlink" viewBox="0 0 24 24"><defs><style>.cls-1,.cls-3,.cls-4{fill:none;}.cls-2{clip-path:url(#clip-path);}.cls-3,.cls-4{stroke:#000;stroke-linecap:round;stroke-linejoin:round;}.cls-3{stroke-width:0.85px;}.cls-4{stroke-width:0.45px;}</style><clipPath id="clip-path"><rect class="cls-1" width="24" height="24"/></clipPath></defs><g id="Grupo_36076" data-name="Grupo 36076"><g class="cls-2"><g id="Grupo_36012" data-name="Grupo 36012"><g id="Grupo_de_máscara_37" data-name="Grupo de máscara 37"><g id="Grupo_26449" data-name="Grupo 26449"><g id="Grupo_10655" data-name="Grupo 10655"><path id="Stroke_5699" data-name="Stroke 5699" class="cls-3" d="M8.83,8.17H19.11a1.54,1.54,0,0,1,1.05.34.94.94,0,0,1,.42.78V12.1L15.22,16"/><path id="Stroke_5699-2" data-name="Stroke 5699-2" class="cls-3" d="M12,16H4.9c-.82,0-1.48-.52-1.47-1.12V9.29c0-.61.64-1.11,1.47-1.12H6.35"/><path id="Stroke_5701" data-name="Stroke 5701" class="cls-3" d="M15.2,16V13.2c0-.6.65-1.1,1.5-1.11h3.88"/><g id="Grupo_10654" data-name="Grupo 10654"><line id="Linha_85" data-name="Linha 85" class="cls-3" x1="4.67" y1="13.59" x2="9.72" y2="13.59"/><line id="Linha_86" data-name="Linha 86" class="cls-3" x1="4.67" y1="12.52" x2="11.18" y2="12.52"/></g></g><g id="Grupo_10745" data-name="Grupo 10745"><path id="Stroke_7921" data-name="Stroke 7921" class="cls-3" d="M6.49,5.54h0l0,5"/><path id="Stroke_7923" data-name="Stroke 7923" class="cls-3" d="M5.32,9.3l1.2,1.2,1.2-1.2"/></g><path id="Stroke_7857" data-name="Stroke 7857" class="cls-4" d="M18.36,9.58c0-.14-.17-.26-.5-.26s-.44.17-.45.33.06.29.45.38.5.2.48.37-.11.34-.48.34-.44-.14-.45-.25"/><path id="Stroke_7859" data-name="Stroke 7859" class="cls-4" d="M17.89,10.73V11"/><path id="Stroke_7861" data-name="Stroke 7861" class="cls-4" d="M17.89,9.08v.24"/></g></g></g></g></g></svg>