<svg id="Grupo_36071" data-name="Grupo 36071" xmlns="http://www.w3.org/2000/svg" width="24" height="24" viewBox="0 0 24 24">
  <g id="Grupo_35995" data-name="Grupo 35995">
    <g id="Grupo_de_m치scara_37" data-name="Grupo de m치scara 37">
      <g id="_6j0lZ0.tif" data-name=" 6j0lZ0.tif">
        <path id="Caminho_9643" data-name="Caminho 9643" d="M10.733,3.069A7.042,7.042,0,0,0,5.347,7.922a6.69,6.69,0,0,0,.643,5.015,37.225,37.225,0,0,0,3.839,5.591c.622.815,1.266,1.608,1.959,2.472.431-.548.815-1.012,1.176-1.5,1.366-1.863,2.776-3.708,4.092-5.613a7.375,7.375,0,0,0,1.386-3.633A6.761,6.761,0,0,0,12.2,3.018h0A6.726,6.726,0,0,0,10.733,3.069Z" fill="none" stroke="#000" stroke-linecap="round" stroke-linejoin="round" stroke-width="1"/>
        <path id="Caminho_9644" data-name="Caminho 9644" d="M11.778,6.985A2.3,2.3,0,0,0,9.489,9.291h0a2.3,2.3,0,0,0,2.3,2.29h0a2.3,2.3,0,0,0,2.293-2.3v0a2.3,2.3,0,0,0-2.31-2.29Z" fill="none" stroke="#000" stroke-linecap="round" stroke-linejoin="round" stroke-width="1"/>
      </g>
    </g>
  </g>
  <rect id="Ret칙ngulo_13633" data-name="Ret칙ngulo 13633" width="24" height="24" transform="translate(0 0)" fill="none"/>
</svg>
