<svg id="Camada_1" data-name="Camada 1" xmlns="http://www.w3.org/2000/svg" xmlns:xlink="http://www.w3.org/1999/xlink" viewBox="0 0 24 24"><defs><style>.cls-1,.cls-3{fill:none;}.cls-2{clip-path:url(#clip-path);}.cls-3{stroke:#000;stroke-linecap:round;stroke-linejoin:round;}</style><clipPath id="clip-path"><rect class="cls-1" width="24" height="24"/></clipPath></defs><g id="Grupo_36064" data-name="Grupo 36064"><g class="cls-2"><g id="Grupo_36010" data-name="Grupo 36010"><g id="Grupo_de_máscara_37" data-name="Grupo de máscara 37"><g id="Grupo_10887" data-name="Grupo 10887"><g id="Grupo_10675" data-name="Grupo 10675"><path id="Caminho_9639" data-name="Caminho 9639" class="cls-3" d="M10.52,17.58A11.5,11.5,0,0,1,7.17,3.92h0a.79.79,0,0,1,1-.44L11.6,4.83a.77.77,0,0,1,.49.76L11.82,8s-.08.8-.4,1L10,9.42c-.38.1-.44.29-.38.68a10.55,10.55,0,0,0,2.5,5.23.69.69,0,0,0,.74.14l1.68-.91a.75.75,0,0,1,.76.14l2.09,1.68c.3.26.47.3.47.61l-1.25,2.86a1.19,1.19,0,0,1-1.52.56c-.54-.25-2.13-1.06-2.61-1.32"/></g></g></g></g></g></g></svg>