<svg id="Camada_1" data-name="Camada 1" xmlns="http://www.w3.org/2000/svg" xmlns:xlink="http://www.w3.org/1999/xlink" viewBox="0 0 24 24"><defs><style>.cls-1{fill:none;}.cls-2{clip-path:url(#clip-path);}</style><clipPath id="clip-path"><rect class="cls-1" width="24" height="24"/></clipPath></defs><g id="Grupo_36069" data-name="Grupo 36069"><g class="cls-2"><g id="Grupo_35999" data-name="Grupo 35999"><g id="Grupo_de_máscara_37" data-name="Grupo de máscara 37"><g id="Icons_Services_Atualização_cadastral_3" data-name="Icons Services Atualização cadastral 3"><g id="Layer_2" data-name="Layer 2"><path id="Pag_Instataneo" data-name="Pag Instataneo" d="M18.11,3.86H14a.4.4,0,0,0-.41.4h0V10a.41.41,0,0,0,.41.41h5.7a.42.42,0,0,0,.41-.4V5.89A2,2,0,0,0,18.11,3.86Zm0-.82A2.85,2.85,0,0,1,21,5.89V10a1.22,1.22,0,0,1-1.22,1.22H14A1.22,1.22,0,0,1,12.82,10h0V4.26A1.22,1.22,0,0,1,14,3h4.07ZM10,3a1.22,1.22,0,0,1,1.22,1.22V10A1.22,1.22,0,0,1,10,11.18H4.27A1.23,1.23,0,0,1,3,10H3V5.89A2.86,2.86,0,0,1,5.89,3Zm9.36,13H16.08v3.25a.82.82,0,0,0,.81.82h2.44a.83.83,0,0,0,.82-.82h0V16.87A.82.82,0,0,0,19.33,16.06ZM10,13.62H4.27a.4.4,0,0,0-.41.4h0v4.07a2,2,0,0,0,2,2H10a.42.42,0,0,0,.41-.41h0V14a.42.42,0,0,0-.4-.41Zm10.59-.82a.41.41,0,0,1,0,.81H14a.42.42,0,0,0-.41.41h0v6.51a.4.4,0,0,1-.41.4.4.4,0,0,1-.4-.36V14A1.22,1.22,0,0,1,14,12.81h6.52Zm-1.22,2.44A1.62,1.62,0,0,1,21,16.87v2.44a1.63,1.63,0,0,1-1.63,1.63H16.89a1.63,1.63,0,0,1-1.63-1.63V15.65a.41.41,0,0,1,.41-.41h3.67ZM10,12.8A1.22,1.22,0,0,1,11.19,14v5.7A1.22,1.22,0,0,1,10,20.94H5.9A2.86,2.86,0,0,1,3,18.1H3V14A1.22,1.22,0,0,1,4.26,12.8H10Zm0-2.44a.42.42,0,0,0,.41-.41h0V4.25a.41.41,0,0,0-.41-.4H5.9a2,2,0,0,0-2,2h0V10a.41.41,0,0,0,.4.41H10Z"/></g></g></g></g></g></g></svg>