<svg id="Camada_1" data-name="Camada 1" xmlns="http://www.w3.org/2000/svg" xmlns:xlink="http://www.w3.org/1999/xlink" viewBox="0 0 24 24"><defs><style>.cls-1,.cls-3,.cls-4{fill:none;}.cls-2{clip-path:url(#clip-path);}.cls-3,.cls-4{stroke:#000;stroke-linecap:round;stroke-linejoin:round;}.cls-4{stroke-width:2.13px;}</style><clipPath id="clip-path"><rect class="cls-1" width="24" height="24"/></clipPath></defs><g id="Grupo_36077" data-name="Grupo 36077"><g class="cls-2"><g id="Grupo_35993" data-name="Grupo 35993"><g id="Grupo_de_máscara_37" data-name="Grupo de máscara 37"><g id="Grupo_26476" data-name="Grupo 26476"><g id="Grupo_10828" data-name="Grupo 10828"><path id="Caminho_9755" data-name="Caminho 9755" class="cls-3" d="M20.53,14.53V16.1a1,1,0,0,1-1,1H6.39"/><g id="Grupo_10826" data-name="Grupo 10826"><path id="Caminho_9756" data-name="Caminho 9756" class="cls-3" d="M3.45,16.1v-11a1,1,0,0,1,1-1h15a1,1,0,0,1,1,1h0V10.5"/></g><g id="Grupo_10827" data-name="Grupo 10827"><path id="Caminho_9757" data-name="Caminho 9757" class="cls-3" d="M3.45,16.1v3.69a.13.13,0,0,0,.13.13.18.18,0,0,0,.1,0l2.71-2.74"/></g></g><line id="Linha_58" data-name="Linha 58" class="cls-4" x1="6.97" y1="10.5" x2="6.97" y2="10.5"/><line id="Linha_58-2" data-name="Linha 58-2" class="cls-4" x1="12.13" y1="10.5" x2="12.13" y2="10.5"/><line id="Linha_58-3" data-name="Linha 58-3" class="cls-4" x1="17.14" y1="10.5" x2="17.14" y2="10.5"/></g></g></g></g></g></svg>