<svg id="Camada_1" data-name="Camada 1" xmlns="http://www.w3.org/2000/svg" xmlns:xlink="http://www.w3.org/1999/xlink" viewBox="0 0 24 24"><defs><style>.cls-1{fill:none;}.cls-2{clip-path:url(#clip-path);}</style><clipPath id="clip-path"><rect class="cls-1" width="24" height="24"/></clipPath></defs><g id="Grupo_36068" data-name="Grupo 36068"><g class="cls-2"><g id="Grupo_35997" data-name="Grupo 35997"><g id="Grupo_de_máscara_37" data-name="Grupo de máscara 37"><g id="Caminho_9662" data-name="Caminho 9662"><g id="Caminho_9885" data-name="Caminho 9885"><path id="Caminho_17033" data-name="Caminho 17033" class="cls-1" d="M12.64,3.81,15.11,8a.75.75,0,0,0,.48.35l4.76,1a.74.74,0,0,1,.57.88.73.73,0,0,1-.17.34l-3.24,3.66a.72.72,0,0,0-.18.56l.48,4.87a.76.76,0,0,1-.67.82h0a.76.76,0,0,1-.37-.06l-4.47-2a.78.78,0,0,0-.6,0l-4.46,2a.75.75,0,0,1-1-.38h0a.69.69,0,0,1-.06-.37l.47-4.87a.74.74,0,0,0-.18-.57L3.25,10.65A.74.74,0,0,1,3.31,9.6h0a.84.84,0,0,1,.34-.17l4.76-1A.72.72,0,0,0,8.89,8l2.47-4.22a.73.73,0,0,1,1-.26A.65.65,0,0,1,12.64,3.81Z"/><path id="Caminho_17034" data-name="Caminho 17034" d="M12,4.69,9.76,8.53a1.8,1.8,0,0,1-1.13.83l-4.34,1,3,3.34A1.72,1.72,0,0,1,7.67,15L7.24,19.4l4.06-1.78a1.79,1.79,0,0,1,1.4,0l4.06,1.78L16.33,15a1.76,1.76,0,0,1,.43-1.33l2.95-3.33-4.34-1a1.75,1.75,0,0,1-1.13-.82L12,4.69m0-1.25a.79.79,0,0,1,.37.1.78.78,0,0,1,.27.27L15.11,8a.75.75,0,0,0,.48.35l4.76,1a.75.75,0,0,1,.57.88h0a.84.84,0,0,1-.17.34l-3.24,3.66a.73.73,0,0,0-.19.56l.48,4.87a.76.76,0,0,1-.67.82.8.8,0,0,1-.37-.06l-4.46-2a.7.7,0,0,0-.6,0l-4.46,2a.75.75,0,0,1-1-.38.8.8,0,0,1-.06-.37l.48-4.87a.75.75,0,0,0-.19-.57L3.25,10.65A.75.75,0,0,1,3.31,9.6a.91.91,0,0,1,.34-.17l4.77-1A.74.74,0,0,0,8.9,8l2.46-4.22A.74.74,0,0,1,12,3.44Z"/></g></g></g></g></g></g></svg>