<svg id="Grupo_36070" data-name="Grupo 36070" xmlns="http://www.w3.org/2000/svg" width="24" height="24" viewBox="0 0 24 24">
  <g id="Grupo_35974" data-name="Grupo 35974">
    <g id="Grupo_35972" data-name="Grupo 35972">
      <path id="Caminho_17032" data-name="Caminho 17032" d="M6.567,18H18.433a1.368,1.368,0,0,0,.968-.4h0a1.37,1.37,0,0,0,.331-1.4L17.5,9.5c-.143-.428-.645-1.851-.846-2.254C15.959,5.849,14.765,3.5,12.5,3.5c0,0-2.667-.5-4.546,2.571a10.421,10.421,0,0,0-1.236,3.2l-1.555,7a1.372,1.372,0,0,0,.369,1.266L5.6,17.6A1.368,1.368,0,0,0,6.567,18Z" fill="none" stroke="#000" stroke-width="1"/>
    </g>
    <g id="Grupo_35973" data-name="Grupo 35973">
      <path id="Stroke_4754" data-name="Stroke 4754" d="M15,18.355A2.645,2.645,0,0,1,12.355,21h0a2.645,2.645,0,0,1-2.643-2.645Z"/>
    </g>
  </g>
  <rect id="Retângulo_4370" data-name="Retângulo 4370" width="24" height="24" fill="none"/>
</svg>
