<svg id="Grupo_36074" data-name="Grupo 36074" xmlns="http://www.w3.org/2000/svg" width="24" height="24" viewBox="0 0 24 24">
  <path id="Caminho_9531" data-name="Caminho 9531" d="M15.565,10.623c-.043-.394-.408-.715-1.2-.715a1,1,0,0,0-1.1.9h0c0,.012,0,.024,0,.037-.022.485.167.827,1.113,1.047s1.208.562,1.186,1.046c-.02.463-.266.926-1.186.926-.882,0-1.077-.4-1.115-.7" fill="none" stroke="#000" stroke-linecap="round" stroke-linejoin="round" stroke-width="1"/>
  <path id="Caminho_9532" data-name="Caminho 9532" d="M14.367,13.884v.9" fill="none" stroke="#000" stroke-linecap="round" stroke-linejoin="round" stroke-width="1"/>
  <path id="Caminho_9533" data-name="Caminho 9533" d="M14.367,9v.888" fill="none" stroke="#000" stroke-linecap="round" stroke-linejoin="round" stroke-width="1"/>
  <g id="Grupo_36003" data-name="Grupo 36003">
    <path id="Caminho_17035" data-name="Caminho 17035" d="M8.5,10v2.813A1.6,1.6,0,0,0,10,14.5h0a1.6,1.6,0,0,0,1.5-1.687V10" fill="none" stroke="#000" stroke-linecap="round" stroke-linejoin="round" stroke-width="1"/>
  </g>
  <g id="Grupo_36006" data-name="Grupo 36006">
    <rect id="Retângulo_13637" data-name="Retângulo 13637" width="24" height="24" transform="translate(0 0)" fill="none"/>
    <path id="Caminho_17036" data-name="Caminho 17036" d="M10.821,17.5H4.337A1.838,1.838,0,0,1,2.5,15.663V8.337A1.838,1.838,0,0,1,4.337,6.5H19.663A1.838,1.838,0,0,1,21.5,8.337v3.675" fill="none" stroke="#000" stroke-linecap="round" stroke-linejoin="round" stroke-width="1"/>
    <g id="Grupo_36004" data-name="Grupo 36004">
      <path id="Caminho_17037" data-name="Caminho 17037" d="M12.5,18.5l2.333-2.333L17.167,18.5l3.5-3.5" fill="none" stroke="#000" stroke-linecap="round" stroke-linejoin="round" stroke-width="1"/>
    </g>
    <g id="Grupo_36005" data-name="Grupo 36005">
      <path id="Caminho_17038" data-name="Caminho 17038" d="M18.333,15h2.333v2.333" fill="none" stroke="#000" stroke-linecap="round" stroke-linejoin="round" stroke-width="1"/>
    </g>
  </g>
</svg>
