<svg id="Grupo_36020" data-name="Grupo 36020" xmlns="http://www.w3.org/2000/svg" xmlns:xlink="http://www.w3.org/1999/xlink" viewBox="0 0 24 24"><defs><style>.cls-1{fill:none;}.cls-2{clip-path:url(#clip-path);}</style><clipPath id="clip-path"><rect class="cls-1" x="3" y="3" width="18" height="18"/></clipPath></defs><rect id="Ret칙ngulo_13643" data-name="Ret칙ngulo 13643" class="cls-1" width="24" height="24"/><g id="Grupo_36019" data-name="Grupo 36019"><g class="cls-2"><g id="Grupo_36018" data-name="Grupo 36018"><g id="Grupo_de_m치scara_37" data-name="Grupo de m치scara 37"><g id="Camada_3" data-name="Camada 3"><path id="Caminho_1226" data-name="Caminho 1226" d="M13.56,14.69l-1.41.82v5.2h1.52a.27.27,0,0,0,.27-.27h0V14.88a.25.25,0,0,0-.23-.24.27.27,0,0,0-.15,0M11.51,7.24a21.78,21.78,0,0,0-3.32.29,6.29,6.29,0,0,1,5-2.41,6.36,6.36,0,0,1,4,1.4c.18.15.32.16.46,0s.13-.27,0-.45a7,7,0,0,0-12,2,12.29,12.29,0,0,0-2.4,1C3,9.24,3,9.37,3,9.54a.31.31,0,0,0,.4.15c.61-.18,1.24-.33,1.9-.47a5,5,0,0,0-.11,1.08,6.92,6.92,0,0,0,3.21,5.93c.2.12.36.12.47,0a.28.28,0,0,0,0-.4.08.08,0,0,0,0,0A6,6,0,0,1,6.88,11.3a5.82,5.82,0,0,1,.49-2.37c.65-.06,1.37-.11,2.15-.11a21,21,0,0,1,4.87.57c2.61.63,4.49,1.85,4.49,3.31,0,1.11-1.41,2.22-3.08,3-.41.18-.45.3-.39.49s.24.21.45.15c2.93-1,5.15-2.54,5.15-4.45,0-2.6-4.19-4.6-9.49-4.6M10.43,16.7v3.84a.18.18,0,0,0,.18.18h1.07V15.78l-1.07.62a.34.34,0,0,0-.18.3"/></g></g></g></g></g></svg>