<svg xmlns="http://www.w3.org/2000/svg" xmlns:xlink="http://www.w3.org/1999/xlink" width="24" height="24" viewBox="0 0 24 24">
  <defs>
    <clipPath id="clip-path">
      <rect id="Ret칙ngulo_4363" data-name="Ret칙ngulo 4363" width="24" height="24" fill="#fff" stroke="#707070" stroke-width="1"/>
    </clipPath>
  </defs>
  <g id="Grupo_de_m치scara_37" data-name="Grupo de m치scara 37" clip-path="url(#clip-path)">
    <g id="Grupo_26451" data-name="Grupo 26451" transform="translate(1307.466 1542.263)">
      <path id="cambio" d="M-1286.3-1529.456a6.71,6.71,0,0,1,1.365.665,1.583,1.583,0,0,1-.189.183c-.131.089-.35.01-.471.162-.252.338.168.219.292.263.17.055.31.374.383.547a.482.482,0,0,1,0,.46c-.068.111-.182.129-.173.277,0,.109.144.152.2.258.173.333-.065.223-.21.052-.1-.1-.149-.19-.286-.232s-.177.081-.29-.067c-.132.169.081.578.192.281.087.08.081.2.127.323.044.093.175.173.234.259a.518.518,0,0,1,.086.516c-.073.26-.129.367-.344.45-.137.057-.4.066-.4.3s.353.286.363.614a.443.443,0,0,1-.1.281c-.162.108-.108-.031-.226-.128-.192-.184-.429-.208-.266.162.086.167.352.271.36.5v.081a.122.122,0,0,1-.033.073c-.179-.021-.278-.365-.364-.516-.1-.2-.111-.394-.2-.578-.08-.134-.135-.1-.235-.191-.116-.081-.133-.162-.219-.259-.2-.23-.346-.14-.5.067a1.028,1.028,0,0,0-.3.577c-.017.168.065.334-.021.5-.189.262-.284-.134-.344-.323a1.558,1.558,0,0,0-.289-.512c-.072-.087-.018-.113-.129-.162-.017-.014-.089.081-.153.042-.111-.047-.139-.223-.266-.285-.221-.094-.485.066-.714.021a1.13,1.13,0,0,1-.178-.1c-.041-.007-.124.024-.173,0-.11-.048-.2-.216-.323-.162-.194.066.247.436.365.532.049-.057.049-.162.13-.186a.344.344,0,0,1,.391.291.349.349,0,0,1,0,.053c-.014.184-.348.47-.477.573-.1.1-.188.211-.274.323l-.07.072h.056c.3-.019.624-.122.529.373-.08.459-.5.759-.653,1.178-.162.44.251.62.172,1.027-.051.22-.26.291-.3.479-.036.2.059.368-.036.583-.142.307-.43,1.11-.775,1.167-.386.062-.523-.506-.646-.8a2.291,2.291,0,0,1-.4-1.071,1.843,1.843,0,0,0-.065-.565c-.06-.187-.209-.293-.282-.479-.086-.167-.016-.364-.148-.535a.458.458,0,0,0-.517-.178c-.172.095-.217.35-.43.386s-.348-.156-.528-.274a1.029,1.029,0,0,1-.457-.384c-.05-.125-.026-.323-.063-.468-.068-.236-.253-.386-.148-.634.088-.179.248-.272.316-.484s.008-.4.081-.59.286-.213.438-.27a3.845,3.845,0,0,0,.719-.252c.243-.161.25.008.362.153.056.073.354.37.476.317.175-.1-.026-.341.277-.278.154.041.167.121.339.108s.252-.1.366-.034a.239.239,0,0,1,.006-.111c.018-.135.313-.408.018-.452a.28.28,0,0,0-.2.038.626.626,0,0,1-.3.066c-.347-.156-.04-.421.142-.469a3.558,3.558,0,0,1,.431-.071c.233-.006.347-.022.1-.281-.122-.112-.585-.347-.484.014-.12.07-.215-.062-.3.035-.1.114-.026.333-.1.391-.3.236.118.693-.281.314-.225-.209-.323-.538-.661-.548-.033.237.339.191.379.431.058.369-.242-.038-.345-.123a.367.367,0,0,0-.517-.038.35.35,0,0,0-.048.051c-.193.161-.144.37-.289.558-.387.5-.915-.49-.409-.623.224-.055.365.086.247-.273-.056-.161-.161-.076-.056-.258.034-.052.2-.113.263-.172a1.861,1.861,0,0,0,.283-.529.428.428,0,0,0,.516.127c.04-.023.161-.061.2-.116s-.011-.161,0-.181c.014,0,.119-.086.133-.086.175-.357-.068-.054-.22-.177s.19-.624-.094-.478a.706.706,0,0,0-.162.323c0,.161.158.155.184.314a.273.273,0,0,1-.135.254c-.134.073-.149-.021-.25-.106a1.684,1.684,0,0,0-.207-.129c-.1-.048-.161.093-.21-.113-.032-.106.167-.3.258-.441a6.808,6.808,0,0,1,.6-.554,1.308,1.308,0,0,1,.138-.012,1.6,1.6,0,0,1,.573.1c.3.162.031.194-.162.242.277.266.308.1.535-.123a1.722,1.722,0,0,1,.585-.258c.1-.032.221-.086.317-.119.029,0,.2-.019.217-.019.073-.094-.045-.091-.032-.194.024-.118-.081-.22.14-.22.161-.01.166.121.22.277.145-.189.124-.317.367-.441.122-.053.262-.093.371-.145a1.218,1.218,0,0,1,.929-.04,4.689,4.689,0,0,0,2.186-.15.985.985,0,0,1,.161-.018Zm-3,8.337c.265,0,.143.421.093.646-.046.172-.016.61-.267.6-.179-.02-.213-.492-.213-.673,0-.265.223-.578.387-.574Zm-1.589-3.08c-.119-.172-.172-.389-.279-.558a1.408,1.408,0,0,1,.208.125c.167.122.232.341.371.484a1.411,1.411,0,0,1,.287.314,3.675,3.675,0,0,1,.131.408c-.323-.1-.524-.463-.722-.77Z" transform="translate(-7.54 -7.056)"/>
      <path id="Stroke_6962" data-name="Stroke 6962" d="M-1284.571-1530.361a7.753,7.753,0,0,0-1.124-.951,8.063,8.063,0,0,0-4.506-1.407h0a7.916,7.916,0,0,0-7.915,7.915,7.915,7.915,0,0,0,7.915,7.915,8.653,8.653,0,0,0,4.756-1.612h0" transform="translate(-5.885 -5.46)" fill="none" stroke="#000" stroke-linecap="round" stroke-linejoin="round" stroke-width="1"/>
      <g id="Grupo_23848" data-name="Grupo 23848" transform="translate(-1291.782 -1534.665)">
        <path id="Stroke_7857" data-name="Stroke 7857" d="M-1269.3-1522.141c-.109-.715-.88-1.32-2.529-1.32-1.54,0-2.255.881-2.31,1.7-.055.88.327,1.485,2.31,1.925,1.98.385,2.529,1.044,2.475,1.924-.055.825-.55,1.7-2.475,1.7-1.87,0-2.255-.715-2.31-1.265" transform="translate(1274.145 1524.667)" fill="none" stroke="#000" stroke-linecap="round" stroke-linejoin="round" stroke-width="1"/>
        <path id="Stroke_7859" data-name="Stroke 7859" d="M-1269.386-1509.319v1.209" transform="translate(1271.812 1517.734)" fill="none" stroke="#000" stroke-linecap="round" stroke-linejoin="round" stroke-width="1"/>
        <path id="Stroke_7861" data-name="Stroke 7861" d="M-1269.386-1525.825v1.21" transform="translate(1271.812 1525.825)" fill="none" stroke="#000" stroke-linecap="round" stroke-linejoin="round" stroke-width="1"/>
      </g>
    </g>
  </g>
</svg>
