<svg id="Grupo_36066" data-name="Grupo 36066" xmlns="http://www.w3.org/2000/svg" width="24" height="24" viewBox="0 0 24 24">
  <g id="Grupo_36016" data-name="Grupo 36016">
    <g id="Grupo_37" data-name="Grupo 37">
      <g id="Grupo_26588" data-name="Grupo 26588">
        <g id="Grupo_8719" data-name="Grupo 8719">
          <path id="Stroke_7851" data-name="Stroke 7851" d="M6.339,6.832h9.442" fill="none" stroke="#000" stroke-linecap="round" stroke-linejoin="round" stroke-width="1"/>
          <path id="Stroke_7853" data-name="Stroke 7853" d="M6.339,17.852h9.442" fill="none" stroke="#000" stroke-linecap="round" stroke-linejoin="round" stroke-width="1"/>
          <path id="Stroke_7855" data-name="Stroke 7855" d="M15.787,17.852v1.966A1.182,1.182,0,0,1,14.606,21H7.524a1.182,1.182,0,0,1-1.182-1.18V6.439a1.182,1.182,0,0,1,1.182-1.18h7.082a1.18,1.18,0,0,1,1.18,1.18h0v7.7" fill="none" stroke="#000" stroke-linecap="round" stroke-linejoin="round" stroke-width="1"/>
        </g>
        <g id="Grupo_23811" data-name="Grupo 23811">
          <g id="Grupo_23806" data-name="Grupo 23806">
            <path id="Caminho_9640" data-name="Caminho 9640" d="M15.647,4.282a1.625,1.625,0,0,1,1.207,1.854" fill="none" stroke="#000" stroke-linecap="round" stroke-linejoin="round" stroke-width="1"/>
            <path id="Caminho_9641" data-name="Caminho 9641" d="M15.926,3a3.545,3.545,0,0,1,2.219,3.423" fill="none" stroke="#000" stroke-linecap="round" stroke-linejoin="round" stroke-width="1"/>
          </g>
        </g>
      </g>
    </g>
  </g>
  <rect id="Retângulo_13642" data-name="Retângulo 13642" width="24" height="24" transform="translate(0 0)" fill="none"/>
</svg>
